<svg width="24" height="24" viewBox="0 0 24 24" fill="none" xmlns="http://www.w3.org/2000/svg">
<rect width="24" height="24" fill="white"/>
<path fill-rule="evenodd" clip-rule="evenodd" d="M14.3775 0.779987C13.6881 0.273809 12.8552 0.000854492 12 0.000854492C11.1448 0.000854492 10.3118 0.273809 9.62249 0.779987L8.23049 1.79999C8.00123 1.96847 7.73467 2.07911 7.45349 2.12249L5.74499 2.38499C4.90036 2.51483 4.11915 2.91064 3.5149 3.5149C2.91064 4.11915 2.51483 4.90036 2.38499 5.74499L2.12249 7.45499C2.07911 7.73617 1.96847 8.00273 1.79999 8.23199L0.779987 9.62399C0.273809 10.3133 0.000854492 11.1463 0.000854492 12.0015C0.000854492 12.8567 0.273809 13.6896 0.779987 14.379L1.79999 15.771C1.96949 16.0005 2.07899 16.266 2.12249 16.548L2.38499 18.255C2.51483 19.0996 2.91064 19.8808 3.5149 20.4851C4.11915 21.0893 4.90036 21.4851 5.74499 21.615L7.45199 21.8775C7.73249 21.921 7.99949 22.0305 8.22899 22.2L9.62099 23.22C10.3103 23.7262 11.1433 23.9991 11.9985 23.9991C12.8537 23.9991 13.6866 23.7262 14.376 23.22L15.768 22.2C15.997 22.0311 16.2637 21.9204 16.545 21.8775L18.252 21.615C19.0971 21.4854 19.8788 21.0894 20.4834 20.4849C21.0879 19.8803 21.4839 19.0986 21.6135 18.2535L21.876 16.5465C21.9195 16.266 22.029 15.999 22.1985 15.7695L23.2185 14.3775C23.7247 13.6881 23.9976 12.8552 23.9976 12C23.9976 11.1448 23.7247 10.3118 23.2185 9.62249L22.1985 8.23049C22.0301 8.0012 21.9194 7.73466 21.876 7.45349L21.615 5.74499C21.4851 4.90036 21.0893 4.11915 20.4851 3.5149C19.8808 2.91064 19.0996 2.51483 18.255 2.38499L16.548 2.12249C16.2668 2.07905 16.0003 1.96842 15.771 1.79999L14.3775 0.779987ZM10.9545 2.59199C11.577 2.13449 12.4245 2.13449 13.0455 2.59199L14.4375 3.61199C14.9595 3.99599 15.5655 4.24649 16.2075 4.34549L17.9115 4.60649C18.6765 4.72349 19.275 5.32349 19.392 6.08699L19.653 7.79249C19.752 8.43299 20.0025 9.03899 20.3865 9.56249L21.4065 10.953C21.864 11.5755 21.864 12.423 21.4065 13.044L20.3865 14.436C20.0028 14.9582 19.7511 15.5655 19.653 16.206L19.392 17.91C19.3352 18.2823 19.161 18.6268 18.8946 18.8931C18.6283 19.1595 18.2838 19.3337 17.9115 19.3905L16.206 19.6515C15.5655 19.7496 14.9582 20.0013 14.436 20.385L13.0455 21.405C12.423 21.8625 11.5755 21.8625 10.9545 21.405L9.56249 20.385C9.04029 20.0013 8.43301 19.7496 7.79249 19.6515L6.08849 19.3905C5.71614 19.3337 5.37168 19.1595 5.10535 18.8931C4.83902 18.6268 4.66475 18.2823 4.60799 17.91L4.34699 16.2045C4.24883 15.564 3.99717 14.9567 3.61349 14.4345L2.59349 13.044C2.37098 12.7408 2.25099 12.3746 2.25099 11.9985C2.25099 11.6224 2.37098 11.2562 2.59349 10.953L3.61349 9.56099C3.99749 9.03899 4.24799 8.43299 4.34699 7.79099L4.60799 6.08699C4.72499 5.32199 5.32499 4.72349 6.08849 4.60649L7.79399 4.34549C8.43451 4.24733 9.04179 3.99567 9.56399 3.61199L10.9545 2.59199ZM16.92 10.17C17.1187 9.95673 17.2269 9.67465 17.2218 9.3832C17.2166 9.09175 17.0985 8.81367 16.8924 8.60755C16.6863 8.40143 16.4082 8.28337 16.1168 8.27822C15.8253 8.27308 15.5433 8.38127 15.33 8.57999L10.5 13.41L8.66999 11.58C8.45673 11.3813 8.17465 11.2731 7.8832 11.2782C7.59175 11.2834 7.31367 11.4014 7.10755 11.6076C6.90144 11.8137 6.78337 12.0918 6.77822 12.3832C6.77308 12.6747 6.88127 12.9567 7.07999 13.17L9.70499 15.795C9.91593 16.0057 10.2019 16.124 10.5 16.124C10.7981 16.124 11.0841 16.0057 11.295 15.795L16.92 10.17Z" fill="#31CF41"/>
</svg>
